<svg width="258" height="66" viewBox="0 0 258 66" fill="none" xmlns="http://www.w3.org/2000/svg">
<g clip-path="url(#clip0_2_3297)">
<path d="M76.2147 30.1786C76.2147 28.058 76.6157 26.1961 77.417 24.5931C78.2189 22.9902 79.3102 21.7573 80.691 20.8942C82.0729 20.0312 83.6147 19.5996 85.3164 19.5996C86.673 19.5996 87.9119 19.8831 89.0342 20.4504C90.1565 21.0176 91.0384 21.782 91.6798 22.7437V13.1633H98.0059V40.5357H91.6798V37.5764C91.0879 38.5628 90.2427 39.3519 89.1457 39.9438C88.0476 40.5357 86.771 40.8315 85.3164 40.8315C83.6147 40.8315 82.0729 40.3938 80.691 39.5184C79.3102 38.6431 78.2189 37.3978 77.417 35.7825C76.6157 34.1671 76.2147 32.2992 76.2147 30.1786ZM91.6798 30.2156C91.6798 28.6373 91.2417 27.3921 90.3655 26.4796C89.4904 25.5672 88.4238 25.1111 87.1663 25.1111C85.9083 25.1111 84.8412 25.561 83.9661 26.4611C83.0899 27.3612 82.6523 28.6002 82.6523 30.1786C82.6523 31.7568 83.0899 33.0083 83.9661 33.933C84.8412 34.8577 85.9083 35.3202 87.1663 35.3202C88.4238 35.3202 89.4904 34.8639 90.3655 33.9515C91.2417 33.0391 91.6798 31.7939 91.6798 30.2156Z" fill="#752881"/>
<path d="M128.949 19.6497C131.514 19.6497 133.556 20.4267 135.072 21.9801C136.59 23.5337 137.348 25.6915 137.348 28.4535V40.512H131.058V29.3042C131.058 27.9726 130.706 26.943 130.004 26.2154C129.301 25.488 128.333 25.1244 127.1 25.1244C125.867 25.1244 124.898 25.488 124.196 26.2154C123.492 26.943 123.141 27.9726 123.141 29.3042V40.512H116.851V29.3042C116.851 27.9726 116.5 26.943 115.797 26.2154C115.094 25.488 114.126 25.1244 112.893 25.1244C111.659 25.1244 110.692 25.488 109.989 26.2154C109.286 26.943 108.934 27.9726 108.934 29.3042V40.512H102.608V19.8718H108.934V22.4609C109.575 21.5979 110.414 20.9137 111.45 20.4082C112.486 19.9026 113.657 19.6497 114.965 19.6497C116.519 19.6497 117.906 19.9828 119.126 20.6485C120.348 21.3143 121.303 22.2638 121.994 23.4967C122.709 22.3625 123.684 21.4378 124.917 20.7225C126.15 20.0074 127.494 19.6497 128.949 19.6497Z" fill="#752881"/>
<path d="M148.114 22.8048C148.73 21.8431 149.582 21.0661 150.666 20.4745C151.752 19.8826 153.022 19.5867 154.477 19.5867C156.179 19.5867 157.721 20.0182 159.102 20.8813C160.483 21.7444 161.575 22.9773 162.376 24.5802C163.178 26.1833 163.579 28.0451 163.579 30.1657C163.579 32.2863 163.178 34.1542 162.376 35.7696C161.575 37.3849 160.483 38.6302 159.102 39.5056C157.721 40.3809 156.179 40.8186 154.477 40.8186C153.047 40.8186 151.783 40.5228 150.685 39.9309C149.587 39.339 148.73 38.5746 148.114 37.6375V50.3621H141.787V19.8826H148.114V22.8048ZM157.142 30.1657C157.142 28.5873 156.704 27.3482 155.828 26.4482C154.952 25.5482 153.873 25.0982 152.591 25.0982C151.333 25.0982 150.266 25.5543 149.391 26.4667C148.515 27.3792 148.077 28.6244 148.077 30.2027C148.077 31.781 148.515 33.0263 149.391 33.9387C150.266 34.851 151.333 35.3072 152.591 35.3072C153.849 35.3072 154.922 34.8448 155.809 33.9201C156.698 32.9954 157.142 31.744 157.142 30.1657Z" fill="#752881"/>
<path fill-rule="evenodd" clip-rule="evenodd" d="M59.6888 9.79393C59.6888 4.7715 55.6108 0.694122 50.5873 0.694122H15.2516C10.2282 0.694122 6.14996 4.7715 6.14996 9.79393L4.66211 43.0178C4.66211 43.0178 12.0767 40.0601 16.5675 38.2686C18.6585 37.4346 21.0287 37.7075 22.8752 38.9951C24.5918 40.1921 25.4742 42.2636 25.1476 44.3302C24.3792 49.1944 23.0526 57.5922 23.0526 57.5922H52.2326C57.2553 57.5922 61.3338 53.5146 61.3338 48.4924L59.6888 9.79393ZM40.6248 13.0496C40.6248 16.2199 39.3267 18.4804 37.3902 19.7486C32.874 22.7065 25.3711 20.4442 25.3711 13.0496C25.3711 11.3909 24.0242 10.0441 22.365 10.0441C20.7059 10.0441 19.359 11.3909 19.359 13.0496C19.359 26.1283 32.6966 30.0081 40.6848 24.7767C44.1077 22.5349 46.637 18.6542 46.637 13.0496C46.637 11.3909 45.2899 10.0441 43.6309 10.0441C41.9718 10.0441 40.6248 11.3909 40.6248 13.0496Z" fill="#FF682E"/>
<path d="M8.51751 61.033L8.52081 61.0356L4.98084 64.9404C4.15287 65.8536 2.74081 65.9232 1.82734 65.0951C0.913877 64.267 0.844475 62.8568 1.67245 61.9436L5.14984 58.112L5.15402 58.1156L5.15137 58.1109L0.8643 55.9226C-0.254947 55.3513 -0.295487 53.7699 0.791379 53.1414L16.9892 43.7917C18.1804 43.105 19.6082 44.1998 19.2524 45.5277L14.3446 63.8395C14.0199 65.0513 12.4812 65.4225 11.6402 64.4897L8.52122 61.0345L8.51751 61.033Z" fill="#752881"/>
<path d="M197.698 20.0186L192.088 40.7344H185.067L181.797 27.2951L178.416 40.7344H171.432L165.785 20.0186H172.138L175.073 34.8315L178.565 20.0186H185.289L188.819 34.7572L191.717 20.0186H197.698ZM219.849 30.0424C219.849 30.6364 219.811 31.2551 219.737 31.8986H205.359C205.458 33.1856 205.867 34.1756 206.585 34.8686C207.328 35.5369 208.232 35.871 209.297 35.871C210.883 35.871 211.985 35.2027 212.604 33.8662H219.366C219.019 35.2275 218.387 36.4526 217.471 37.5416C216.579 38.6306 215.452 39.4845 214.09 40.1032C212.728 40.722 211.205 41.0314 209.52 41.0314C207.489 41.0314 205.681 40.5982 204.096 39.732C202.511 38.8657 201.273 37.6282 200.381 36.0195C199.489 34.4107 199.043 32.5297 199.043 30.3765C199.043 28.2232 199.477 26.3422 200.344 24.7335C201.235 23.1247 202.474 21.8872 204.059 21.021C205.644 20.1547 207.465 19.7216 209.52 19.7216C211.527 19.7216 213.31 20.1424 214.87 20.9839C216.431 21.8254 217.644 23.0257 218.511 24.585C219.403 26.1442 219.849 27.9634 219.849 30.0424ZM213.347 28.3717C213.347 27.2827 212.975 26.4165 212.232 25.773C211.489 25.1295 210.561 24.8077 209.446 24.8077C208.381 24.8077 207.477 25.1171 206.734 25.7359C206.016 26.3546 205.57 27.2332 205.396 28.3717H213.347ZM229.739 22.9515C230.333 21.9862 231.188 21.2066 232.302 20.6126C233.417 20.0186 234.692 19.7216 236.129 19.7216C237.838 19.7216 239.386 20.1547 240.773 21.021C242.16 21.8872 243.25 23.1247 244.042 24.7335C244.86 26.3422 245.268 28.2109 245.268 30.3394C245.268 32.4679 244.86 34.3489 244.042 35.9824C243.25 37.5911 242.16 38.841 240.773 39.732C239.386 40.5982 237.838 41.0314 236.129 41.0314C234.668 41.0314 233.392 40.7467 232.302 40.1775C231.212 39.5835 230.358 38.8039 229.739 37.8386V40.7344H223.386V13.2619H229.739V22.9515ZM238.804 30.3394C238.804 28.7554 238.358 27.5179 237.466 26.6269C236.599 25.7111 235.522 25.2532 234.234 25.2532C232.971 25.2532 231.894 25.7111 231.002 26.6269C230.135 27.5426 229.702 28.7925 229.702 30.3765C229.702 31.9605 230.135 33.2104 231.002 34.1261C231.894 35.0419 232.971 35.4997 234.234 35.4997C235.497 35.4997 236.575 35.0419 237.466 34.1261C238.358 33.1856 238.804 31.9234 238.804 30.3394Z" fill="#FF682E"/>
</g>
<defs>
<clipPath id="clip0_2_3297">
<rect width="258" height="66" fill="white"/>
</clipPath>
</defs>
</svg>
