<svg width="78" height="78" viewBox="0 0 78 78" fill="none" xmlns="http://www.w3.org/2000/svg">
<path d="M38.9397 6.48987C26.3946 6.48987 16.2249 16.6596 16.2249 29.2047C16.2249 42.0743 30.5157 61.0704 36.4281 68.3748C37.7261 69.9778 40.1533 69.9778 41.4513 68.3748C47.3637 61.0704 61.6545 42.0743 61.6545 29.2047C61.6545 16.6596 51.4848 6.48987 38.9397 6.48987ZM49.7552 32.4497H48.6746V40.0202C48.6746 41.2176 47.7076 42.1846 46.5102 42.1846H44.3458C43.1517 42.1846 42.1847 41.2176 42.1847 40.0202V32.4497H35.6947V40.0202C35.6947 41.2176 34.7277 42.1846 33.5303 42.1846H31.3692C30.1718 42.1846 29.2048 41.2176 29.2048 40.0202V32.4497H28.1242C26.9268 32.4497 25.9598 31.4827 25.9598 30.2853C25.9598 29.6038 26.281 28.9646 26.8262 28.5557L36.9927 20.93C38.1479 20.0636 39.7315 20.0636 40.8867 20.93L51.0532 28.5557C51.5983 28.9646 51.9196 29.6038 51.9196 30.2853C51.9196 31.4827 50.9526 32.4497 49.7552 32.4497Z" fill="white"/>
</svg>
