<svg width="29" height="29" viewBox="0 0 29 29" fill="none" xmlns="http://www.w3.org/2000/svg">
<path d="M4.79253 4.7926C3.99457 4.7926 3.29097 5.18449 2.85725 5.78716C2.5649 6.19213 2.69405 6.76617 3.117 7.02976L13.6382 13.5868C14.0911 13.8696 14.6643 13.8696 15.1172 13.5868L25.5939 6.9736C26.0336 6.69563 26.1433 6.0915 25.8186 5.68653C25.3813 5.14257 24.7141 4.7926 23.9629 4.7926H4.79253ZM25.7788 9.68815C25.6786 9.68925 25.5769 9.71687 25.4816 9.77707L15.1172 16.3131C14.6643 16.5946 14.0911 16.5935 13.6382 16.3107L3.27145 9.85196C2.89044 9.61473 2.39624 9.8894 2.39624 10.3387V21.5666C2.39624 22.8906 3.46858 23.9629 4.79253 23.9629H23.9629C25.2868 23.9629 26.3591 22.8906 26.3591 21.5666V10.2615C26.3591 9.9236 26.0794 9.68484 25.7788 9.68815Z" fill="white"/>
</svg>
