<svg width="29" height="29" viewBox="0 0 29 29" fill="none" xmlns="http://www.w3.org/2000/svg">
<path d="M23.0283 18.2717L20.009 17.9243C19.2782 17.8404 18.5593 18.092 18.0441 18.6072L15.8275 20.8238C14.1273 19.9611 12.5853 18.8361 11.253 17.5025C9.91944 16.1702 8.79438 14.6282 7.93172 12.928L10.1483 10.7114C10.6635 10.1962 10.9151 9.47736 10.8312 8.74649L10.4838 5.72716C10.34 4.51704 9.32157 3.60645 8.09946 3.60645H6.02667C4.67276 3.60645 3.54651 4.7327 3.63038 6.08661C3.94789 11.2015 6.15128 15.8012 9.55281 19.2027C12.9543 22.6042 17.554 24.8076 22.6689 25.1251C24.0228 25.209 25.1491 24.0827 25.1491 22.7288V20.6561C25.1491 19.4339 24.2385 18.4155 23.0283 18.2717Z" fill="white"/>
</svg>
